<?xml version="1.0" encoding="UTF-8"?>
<svg id="_レイヤー_1" data-name="レイヤー 1" xmlns="http://www.w3.org/2000/svg" viewBox="0 0 841.89 595.28">
  <defs>
    <style>
      .cls-1 {
        fill: none;
        stroke: #fff;
        stroke-miterlimit: 10;
        stroke-width: 4px;
      }

      .cls-2 {
        fill: #e9a2ab;
      }

      .cls-3 {
        fill: #fff;
      }
    </style>
  </defs>
  <g>
    <path class="cls-3" d="M274.47,331.99c-1.67,0-3.08-.31-4.22-.94s-1.95-1.54-2.43-2.73c-.48-1.19-.6-2.59-.35-4.18l1.88-11.94c.27-1.62.83-3.02,1.7-4.2.86-1.18,1.96-2.08,3.3-2.71,1.34-.63,2.84-.94,4.52-.94s3.07.32,4.19.96c1.12.64,1.93,1.54,2.43,2.71.5,1.17.62,2.56.35,4.18h-3.98c.24-1.4.06-2.47-.57-3.21-.63-.74-1.62-1.11-2.97-1.11s-2.46.37-3.34,1.11c-.87.74-1.42,1.79-1.64,3.17l-1.88,11.98c-.22,1.38-.01,2.44.63,3.19s1.62,1.12,2.95,1.12,2.46-.37,3.32-1.12c.86-.75,1.4-1.81,1.62-3.19h3.98c-.25,1.6-.8,2.99-1.66,4.17-.86,1.18-1.96,2.09-3.3,2.73s-2.84.96-4.52.96Z"/>
    <path class="cls-3" d="M296.44,331.99c-1.65,0-3.03-.31-4.15-.94-1.12-.63-1.91-1.54-2.38-2.73-.47-1.19-.58-2.59-.33-4.18l.81-5.31c.27-1.62.83-3.02,1.68-4.2.85-1.18,1.94-2.08,3.26-2.71s2.81-.94,4.46-.94,3.06.31,4.17.94,1.9,1.53,2.38,2.71c.48,1.18.6,2.57.35,4.17l-.85,5.34c-.25,1.6-.8,2.99-1.66,4.18-.86,1.19-1.95,2.1-3.26,2.73-1.31.63-2.81.94-4.48.94ZM297,328.49c1.35,0,2.45-.37,3.28-1.11.84-.74,1.37-1.82,1.59-3.24l.81-5.31c.24-1.43.07-2.51-.54-3.24-.6-.74-1.57-1.11-2.89-1.11s-2.41.37-3.24,1.11c-.84.74-1.38,1.82-1.62,3.24l-.81,5.31c-.22,1.43-.03,2.51.57,3.24.6.74,1.55,1.11,2.86,1.11Z"/>
    <path class="cls-3" d="M317.12,331.99c-2.02,0-3.51-.69-4.5-2.06-.98-1.38-1.29-3.23-.92-5.57l.89-5.72c.25-1.6.74-2.96,1.47-4.09.74-1.13,1.65-2.01,2.75-2.64s2.32-.94,3.67-.94c1.67,0,2.93.46,3.78,1.38.85.92,1.14,2.18.87,3.78l-.7-.92h.89l.66-4.72.96-5.79h3.95l-4.28,26.91h-3.91l.63-3.87h-.85l1-.92c-.27,1.6-.98,2.86-2.12,3.78-1.14.92-2.55,1.38-4.22,1.38ZM319.08,328.53c1.25,0,2.3-.39,3.15-1.16.85-.77,1.38-1.85,1.6-3.23l.81-5.31c.25-1.38.07-2.45-.53-3.23-.6-.77-1.54-1.16-2.82-1.16s-2.36.38-3.17,1.12c-.81.75-1.34,1.84-1.58,3.26l-.81,5.31c-.25,1.43-.07,2.51.52,3.26s1.54,1.13,2.84,1.13Z"/>
    <path class="cls-3" d="M340.68,331.99c-1.65,0-3.02-.33-4.13-.98-1.11-.65-1.9-1.57-2.38-2.75-.48-1.18-.6-2.56-.35-4.13l.81-5.31c.27-1.6.84-2.98,1.7-4.15.86-1.17,1.95-2.08,3.26-2.73,1.32-.65,2.8-.98,4.44-.98s3.06.33,4.17.98,1.9,1.56,2.38,2.73c.48,1.17.58,2.55.31,4.15l-.55,3.61h-12.42l-.26,1.7c-.22,1.5-.04,2.64.55,3.43.59.79,1.6,1.18,3.02,1.18,1.16,0,2.11-.2,2.86-.61.75-.41,1.27-1,1.57-1.79h3.95c-.37,1.16-.98,2.15-1.83,2.99s-1.88,1.49-3.1,1.95-2.55.7-4,.7ZM346.87,320.05l.18-1.25c.25-1.47.08-2.62-.5-3.43s-1.58-1.22-3-1.22-2.56.41-3.41,1.22-1.4,1.97-1.64,3.47l-.15.92,8.85-.04-.33.33Z"/>
  </g>
  <g>
    <path class="cls-3" d="M364.65,331.62l4.28-26.95h16.26l-.59,3.69h-12.39l-1.25,8.04h11.43l-.59,3.69h-11.35l-1.84,11.54h-3.95Z"/>
    <path class="cls-3" d="M394.51,331.99c-1.65,0-3.03-.31-4.15-.94-1.12-.63-1.91-1.54-2.38-2.73-.47-1.19-.58-2.59-.33-4.18l.81-5.31c.27-1.62.83-3.02,1.68-4.2.85-1.18,1.94-2.08,3.26-2.71s2.81-.94,4.46-.94,3.06.31,4.17.94,1.9,1.53,2.38,2.71c.48,1.18.6,2.57.35,4.17l-.85,5.34c-.25,1.6-.8,2.99-1.66,4.18-.86,1.19-1.95,2.1-3.26,2.73-1.31.63-2.81.94-4.48.94ZM395.06,328.49c1.35,0,2.45-.37,3.28-1.11.84-.74,1.37-1.82,1.59-3.24l.81-5.31c.24-1.43.07-2.51-.54-3.24-.6-.74-1.57-1.11-2.89-1.11s-2.41.37-3.24,1.11c-.84.74-1.38,1.82-1.62,3.24l-.81,5.31c-.22,1.43-.03,2.51.57,3.24.6.74,1.55,1.11,2.86,1.11Z"/>
    <path class="cls-3" d="M409.4,331.62l3.21-20.28h3.83l-.63,3.87h.96l-1.59,2.4c.34-2.19,1.09-3.84,2.23-4.96,1.14-1.12,2.66-1.68,4.55-1.68,2.16,0,3.77.67,4.81,2.01,1.04,1.34,1.38,3.18,1.01,5.51l-.22,1.36h-4.09l.18-1.03c.22-1.45.04-2.56-.55-3.34-.59-.77-1.54-1.16-2.84-1.16s-2.38.39-3.23,1.18c-.85.79-1.4,1.89-1.64,3.32l-2.03,12.79h-3.98Z"/>
  </g>
  <g>
    <path class="cls-2" d="M441.55,331.62l4.28-26.91h3.98l-1.81,11.21h3.5l7.34-11.21h4.39l-8.48,13.09,4.5,13.82h-4.31l-3.83-12.13h-3.65l-1.92,12.13h-3.98Z"/>
    <path class="cls-2" d="M470.12,331.99c-2.02,0-3.52-.69-4.52-2.06-.99-1.38-1.3-3.23-.9-5.57l.89-5.72c.25-1.6.74-2.96,1.47-4.09.74-1.13,1.65-2.01,2.75-2.64s2.32-.94,3.67-.94c1.67,0,2.93.46,3.78,1.38.85.92,1.14,2.18.87,3.78l-.7-.92h.89l.55-3.87h3.95l-3.21,20.28h-3.91l.63-3.87h-.85l1-.92c-.27,1.6-.98,2.86-2.12,3.78-1.14.92-2.55,1.38-4.22,1.38ZM472.07,328.53c1.25,0,2.3-.39,3.15-1.16.85-.77,1.38-1.85,1.6-3.23l.81-5.31c.25-1.38.07-2.45-.53-3.23-.6-.77-1.54-1.16-2.82-1.16s-2.36.38-3.17,1.12c-.81.75-1.34,1.84-1.58,3.26l-.81,5.31c-.25,1.43-.07,2.51.52,3.26s1.54,1.13,2.84,1.13Z"/>
    <path class="cls-2" d="M484.86,331.62l3.21-20.28h3.32l-.37,2.58h.7l-.7.77c.2-1.13.66-2.03,1.39-2.71.73-.68,1.6-1.01,2.63-1.01,1.1,0,1.9.43,2.36,1.29.47.86.58,2.04.34,3.54l-.59-1.88h1.4l-.74.77c.2-1.13.67-2.03,1.4-2.71.74-.68,1.64-1.01,2.69-1.01,1.25,0,2.16.47,2.73,1.42.56.95.72,2.21.47,3.78l-2.47,15.45h-3.54l2.39-15.34c.13-.76.07-1.35-.18-1.77s-.68-.63-1.29-.63-1.13.2-1.53.61c-.41.41-.67.99-.79,1.75l-2.44,15.37h-2.99l2.4-15.34c.14-.79.08-1.38-.2-1.79-.28-.41-.73-.61-1.34-.61s-1.12.2-1.49.61c-.38.41-.64.99-.76,1.75l-2.43,15.37h-3.58Z"/>
    <path class="cls-2" d="M507.65,331.62l.59-3.61h7.12l2.06-13.05h-6.2l.56-3.61h10.06l-2.62,16.66h6.56l-.59,3.61h-17.55ZM520.25,307.84c-.89,0-1.54-.23-1.97-.68-.43-.45-.6-1.06-.5-1.83.15-.79.51-1.41,1.09-1.86.58-.45,1.3-.68,2.16-.68s1.51.23,1.95.68c.44.46.6,1.08.48,1.86-.1.76-.44,1.37-1.03,1.83s-1.31.68-2.18.68Z"/>
    <path class="cls-2" d="M531.61,338.26l.55-3.43h6.23c1.03,0,1.84-.25,2.43-.74.59-.49.96-1.22,1.11-2.18l.33-2.18.66-3.83h-.99l1.1-.92c-.25,1.62-.93,2.89-2.05,3.8s-2.53,1.36-4.22,1.36c-1.99,0-3.49-.65-4.5-1.94s-1.34-3.03-1-5.22l1.88-11.65h3.95l-1.77,11.21c-.22,1.33-.03,2.36.57,3.1.6.74,1.52,1.11,2.75,1.11s2.3-.39,3.15-1.16c.85-.77,1.38-1.87,1.6-3.3l1.73-10.95h3.98l-3.28,20.64c-.27,1.94-1.13,3.47-2.56,4.59-1.44,1.12-3.24,1.68-5.4,1.68h-6.27Z"/>
    <path class="cls-2" d="M558.59,331.99c-2.02,0-3.52-.69-4.52-2.06-1-1.38-1.3-3.23-.9-5.57l.88-5.72c.25-1.6.74-2.96,1.48-4.09.74-1.13,1.65-2.01,2.75-2.64,1.1-.63,2.32-.94,3.67-.94,1.67,0,2.93.46,3.78,1.38.85.92,1.13,2.18.86,3.78l-.7-.92h.89l.55-3.87h3.95l-3.21,20.28h-3.91l.63-3.87h-.85l.99-.92c-.27,1.6-.98,2.86-2.12,3.78-1.14.92-2.55,1.38-4.22,1.38ZM560.55,328.53c1.25,0,2.3-.39,3.15-1.16.85-.77,1.38-1.85,1.6-3.23l.81-5.31c.24-1.38.07-2.45-.54-3.23-.6-.77-1.54-1.16-2.82-1.16s-2.36.38-3.17,1.12c-.81.75-1.34,1.84-1.59,3.26l-.81,5.31c-.25,1.43-.08,2.51.52,3.26s1.54,1.13,2.84,1.13Z"/>
    <path class="cls-2" d="M573.34,331.62l3.21-20.28h3.32l-.37,2.58h.7l-.7.77c.2-1.13.66-2.03,1.38-2.71.73-.68,1.61-1.01,2.64-1.01,1.1,0,1.89.43,2.36,1.29.47.86.58,2.04.33,3.54l-.59-1.88h1.4l-.74.77c.2-1.13.67-2.03,1.4-2.71.74-.68,1.64-1.01,2.69-1.01,1.25,0,2.16.47,2.73,1.42.56.95.72,2.21.48,3.78l-2.47,15.45h-3.54l2.4-15.34c.12-.76.06-1.35-.18-1.77s-.68-.63-1.29-.63-1.13.2-1.53.61c-.41.41-.67.99-.79,1.75l-2.43,15.37h-2.99l2.4-15.34c.15-.79.08-1.38-.2-1.79-.28-.41-.73-.61-1.34-.61s-1.11.2-1.49.61c-.38.41-.63.99-.76,1.75l-2.43,15.37h-3.58Z"/>
    <path class="cls-2" d="M602.83,331.99c-2.02,0-3.52-.69-4.52-2.06-1-1.38-1.3-3.23-.9-5.57l.88-5.72c.25-1.6.74-2.96,1.48-4.09.74-1.13,1.65-2.01,2.75-2.64,1.1-.63,2.32-.94,3.67-.94,1.67,0,2.93.46,3.78,1.38.85.92,1.13,2.18.86,3.78l-.7-.92h.89l.55-3.87h3.95l-3.21,20.28h-3.91l.63-3.87h-.85l.99-.92c-.27,1.6-.98,2.86-2.12,3.78-1.14.92-2.55,1.38-4.22,1.38ZM604.78,328.53c1.25,0,2.3-.39,3.15-1.16.85-.77,1.38-1.85,1.6-3.23l.81-5.31c.24-1.38.07-2.45-.54-3.23-.6-.77-1.54-1.16-2.82-1.16s-2.36.38-3.17,1.12c-.81.75-1.34,1.84-1.59,3.26l-.81,5.31c-.25,1.43-.08,2.51.52,3.26s1.54,1.13,2.84,1.13Z"/>
  </g>
  <path class="cls-1" d="M226.38,338.26c0-54.02,43.79-97.81,97.81-97.81"/>
  <g>
    <path class="cls-3" d="M269.67,353.31c-.39,0-.72-.07-.98-.22-.26-.15-.45-.36-.56-.65-.11-.28-.14-.62-.08-1l.46-2.94c.07-.39.2-.73.4-1.01s.45-.49.77-.64c.31-.15.66-.22,1.05-.22s.72.08.97.23c.26.15.44.37.56.65.11.28.14.61.08,1h-.8c.06-.37,0-.65-.16-.85-.16-.2-.42-.3-.77-.3s-.64.1-.87.29c-.23.2-.37.48-.43.85l-.46,2.95c-.06.37,0,.65.16.85.17.2.42.3.77.3s.64-.1.86-.3c.23-.2.37-.48.43-.85h.8c-.06.38-.19.71-.39.99s-.46.5-.77.65c-.31.15-.66.23-1.05.23Z"/>
    <path class="cls-3" d="M273.14,353.22l1.03-6.5h.8l-.26,1.6-.15.93h.17l-.2.19c.07-.39.23-.68.49-.89.26-.21.6-.32,1.01-.32.49,0,.86.15,1.1.45.24.3.32.72.24,1.24l-.53,3.29h-.8l.51-3.2c.05-.35,0-.62-.15-.81-.15-.19-.39-.29-.71-.29s-.61.1-.84.31c-.23.21-.37.5-.44.88l-.49,3.12h-.8Z"/>
    <path class="cls-3" d="M280.04,353.31c-.49,0-.85-.16-1.09-.49s-.31-.77-.22-1.33l.22-1.43c.06-.38.18-.7.35-.98.17-.27.39-.48.66-.63.26-.15.56-.22.89-.22.4,0,.71.11.92.33s.28.51.22.88l-.13-.19h.18l.13-.93h.8l-.77,4.9h-.8l.15-.93h-.16l.19-.19c-.06.37-.23.67-.51.89-.28.22-.62.32-1.02.32ZM280.42,352.62c.33,0,.61-.1.83-.31.22-.21.36-.5.42-.86l.21-1.34c.07-.37.02-.66-.14-.86-.16-.21-.41-.31-.74-.31s-.62.1-.83.3-.36.49-.42.87l-.2,1.34c-.06.38-.01.67.14.87s.4.3.74.3Z"/>
    <path class="cls-3" d="M283.82,353.22l.77-4.9h.8l-.15.93h.17l-.2.19c.07-.39.23-.68.49-.89.26-.21.6-.32,1.01-.32.49,0,.86.15,1.1.45.24.3.32.72.24,1.24l-.53,3.29h-.8l.51-3.2c.05-.35,0-.62-.15-.81-.15-.19-.39-.29-.71-.29s-.61.1-.84.31c-.23.21-.37.5-.44.88l-.49,3.12h-.8Z"/>
    <path class="cls-3" d="M289.54,354.82l.12-.73h1.56c.25,0,.44-.06.57-.17.13-.11.22-.29.26-.53l.1-.62.16-.89h-.16l.17-.13c-.06.36-.22.64-.49.85-.27.21-.6.31-1,.31-.5,0-.88-.16-1.12-.49-.24-.33-.32-.77-.23-1.33l.16-1.03c.06-.37.18-.7.35-.97.17-.27.4-.48.67-.63.27-.15.57-.22.9-.22.4,0,.7.1.9.31.2.21.28.49.22.85l-.13-.13h.15l.15-.93h.79l-.8,5.07c-.07.44-.26.79-.57,1.04-.31.26-.71.38-1.19.38h-1.55ZM291.18,352.22c.33,0,.61-.1.83-.31.22-.21.36-.5.42-.86l.14-.93c.07-.37.02-.66-.14-.86-.16-.21-.41-.31-.74-.31s-.62.1-.83.3-.36.49-.42.87l-.14.93c-.06.38-.01.67.14.87.15.2.4.3.74.3Z"/>
    <path class="cls-3" d="M296.34,353.31c-.39,0-.71-.08-.96-.23-.26-.15-.44-.37-.55-.65-.11-.28-.14-.61-.08-.98l.2-1.34c.07-.38.2-.71.4-.99.2-.28.45-.5.76-.65.31-.15.65-.23,1.04-.23s.71.08.97.23c.26.15.44.37.55.65.11.28.13.61.07.99l-.13.86h-2.99l-.07.47c-.06.39-.01.68.14.89.15.2.41.31.77.31.31,0,.56-.05.76-.16.2-.11.34-.27.41-.49h.8c-.08.27-.21.51-.41.71-.2.2-.44.35-.73.46-.29.11-.6.16-.95.16ZM297.91,350.44l.04-.33c.07-.39.02-.68-.13-.89-.15-.21-.41-.31-.78-.31s-.65.1-.87.31c-.22.21-.36.5-.43.89l-.04.26h2.27l-.07.07Z"/>
    <path class="cls-3" d="M305.47,353.22v-4.9s.68,0,.68,0l-.06,3.47c0,.13,0,.27,0,.42s0,.28,0,.38c.03-.1.07-.23.12-.38.05-.15.09-.29.13-.42l1.1-3.47h.78v3.47c0,.13,0,.27,0,.42s0,.28,0,.38c.03-.1.07-.23.12-.38s.09-.29.13-.42l1.06-3.47h.68l-1.59,4.9h-.88v-3.38c0-.17,0-.33,0-.5v-.39c-.02.09-.06.23-.12.39-.05.17-.11.33-.16.5l-1.09,3.38h-.88Z"/>
    <path class="cls-3" d="M310.42,353.22l.12-.73h1.74l.54-3.44h-1.51l.12-.73h2.31l-.66,4.17h1.65l-.12.73h-4.18ZM313.43,347.44c-.2,0-.34-.05-.44-.15-.09-.1-.13-.24-.11-.41.03-.18.11-.32.24-.42.13-.1.29-.16.49-.16s.34.05.44.16c.1.1.13.24.1.42-.02.17-.1.31-.23.41-.13.1-.29.15-.49.15Z"/>
    <path class="cls-3" d="M318.26,353.22c-.42,0-.73-.11-.93-.34-.2-.23-.27-.54-.2-.95l.45-2.88h-1.38l.12-.73h1.38l.21-1.34h.8l-.21,1.34h1.96l-.12.73h-1.96l-.45,2.88c-.06.37.09.56.45.56h1.34l-.12.73h-1.34Z"/>
    <path class="cls-3" d="M321.21,353.22l1.03-6.5h.8l-.26,1.6-.15.93h.17l-.2.19c.07-.39.23-.68.49-.89.26-.21.6-.32,1.01-.32.49,0,.86.15,1.1.45.24.3.32.72.24,1.24l-.53,3.29h-.8l.51-3.2c.05-.35,0-.62-.15-.81-.15-.19-.39-.29-.71-.29s-.61.1-.84.31c-.23.21-.37.5-.44.88l-.49,3.12h-.8Z"/>
    <path class="cls-3" d="M333.35,353.22l.92-5.78h-1.78l.12-.73h4.36l-.12.73h-1.78l-.92,5.78h-.8Z"/>
    <path class="cls-3" d="M339.07,353.31c-.39,0-.71-.08-.96-.23-.26-.15-.44-.37-.55-.65-.11-.28-.13-.61-.08-.98l.2-1.34c.07-.38.2-.71.4-.99.2-.28.45-.5.76-.65.31-.15.65-.23,1.04-.23s.71.08.97.23c.26.15.44.37.55.65.11.28.13.61.07.99l-.13.86h-2.99l-.07.47c-.06.39-.01.68.14.89.15.2.41.31.77.31.31,0,.56-.05.76-.16.2-.11.34-.27.41-.49h.8c-.08.27-.21.51-.41.71s-.44.35-.73.46c-.29.11-.6.16-.95.16ZM340.64,350.44l.04-.33c.07-.39.02-.68-.13-.89-.15-.21-.41-.31-.78-.31s-.65.1-.87.31c-.22.21-.36.5-.43.89l-.04.26h2.27l-.07.07Z"/>
    <path class="cls-3" d="M344.45,353.31c-.39,0-.72-.07-.98-.22-.26-.15-.45-.36-.56-.65-.11-.28-.14-.62-.08-1l.21-1.34c.07-.39.2-.73.4-1.01.2-.28.45-.49.77-.64.32-.15.67-.22,1.06-.22.56,0,.99.15,1.29.45.3.3.41.72.35,1.24h-.8c.03-.31-.04-.56-.21-.73s-.42-.25-.75-.25c-.35,0-.64.1-.87.3-.23.2-.37.48-.43.85l-.21,1.34c-.06.37,0,.65.16.85s.42.3.77.3.61-.09.83-.26.37-.41.44-.72h.8c-.1.52-.35.93-.74,1.24-.39.3-.87.45-1.44.45Z"/>
    <path class="cls-3" d="M347.92,353.22l1.03-6.5h.8l-.26,1.6-.15.93h.17l-.2.19c.07-.39.23-.68.49-.89.26-.21.6-.32,1.01-.32.49,0,.86.15,1.1.45.24.3.32.72.24,1.24l-.53,3.29h-.8l.51-3.2c.05-.35,0-.62-.15-.81-.15-.19-.39-.29-.71-.29s-.61.1-.84.31c-.23.21-.37.5-.44.88l-.49,3.12h-.8Z"/>
    <path class="cls-3" d="M353.67,354.65l1.15-2.77h1.19l-1.59,2.77h-.75Z"/>
    <path class="cls-3" d="M365.82,353.31c-.39,0-.72-.07-.98-.22-.26-.15-.45-.36-.56-.65-.11-.28-.13-.62-.08-1l.46-2.94c.07-.39.2-.73.4-1.01.2-.28.45-.49.77-.64.31-.15.66-.22,1.06-.22s.72.08.97.23c.26.15.44.37.56.65.11.28.14.61.08,1h-.8c.06-.37,0-.65-.16-.85-.16-.2-.42-.3-.77-.3s-.64.1-.87.29c-.23.2-.37.48-.43.85l-.46,2.95c-.06.37,0,.65.16.85s.42.3.77.3.64-.1.86-.3.37-.48.43-.85h.8c-.06.38-.19.71-.39.99-.2.28-.46.5-.77.65s-.66.23-1.05.23Z"/>
    <path class="cls-3" d="M369.29,353.22l1.03-6.5h.8l-.26,1.6-.15.93h.17l-.2.19c.07-.39.23-.68.49-.89.26-.21.6-.32,1.01-.32.49,0,.86.15,1.1.45.24.3.32.72.24,1.24l-.53,3.29h-.8l.51-3.2c.05-.35,0-.62-.15-.81-.15-.19-.39-.29-.71-.29s-.61.1-.84.31c-.23.21-.37.5-.44.88l-.49,3.12h-.8Z"/>
    <path class="cls-3" d="M376.19,353.31c-.49,0-.85-.16-1.09-.49s-.31-.77-.22-1.33l.22-1.43c.06-.38.18-.7.35-.98.18-.27.39-.48.66-.63.26-.15.56-.22.89-.22.4,0,.71.11.92.33s.28.51.22.88l-.13-.19h.18l.13-.93h.8l-.77,4.9h-.8l.15-.93h-.16l.19-.19c-.06.37-.23.67-.51.89s-.62.32-1.02.32ZM376.57,352.62c.33,0,.61-.1.83-.31.22-.21.36-.5.42-.86l.21-1.34c.07-.37.02-.66-.14-.86-.16-.21-.41-.31-.74-.31s-.62.1-.83.3-.36.49-.42.87l-.21,1.34c-.06.38-.01.67.14.87s.4.3.74.3Z"/>
    <path class="cls-3" d="M379.97,353.22l.77-4.9h.8l-.15.93h.17l-.2.19c.07-.39.23-.68.49-.89.26-.21.6-.32,1.01-.32.49,0,.86.15,1.1.45.24.3.32.72.24,1.24l-.53,3.29h-.8l.51-3.2c.05-.35,0-.62-.15-.81-.15-.19-.39-.29-.71-.29s-.61.1-.84.31c-.23.21-.37.5-.44.88l-.49,3.12h-.8Z"/>
    <path class="cls-3" d="M385.69,354.82l.12-.73h1.56c.25,0,.44-.06.57-.17.13-.11.22-.29.26-.53l.1-.62.16-.89h-.16l.17-.13c-.06.36-.22.64-.49.85-.27.21-.6.31-1,.31-.5,0-.88-.16-1.12-.49-.24-.33-.32-.77-.23-1.33l.16-1.03c.06-.37.18-.7.35-.97.17-.27.4-.48.67-.63s.57-.22.9-.22c.4,0,.7.1.9.31.2.21.28.49.22.85l-.13-.13h.15l.15-.93h.79l-.8,5.07c-.07.44-.26.79-.57,1.04-.31.26-.71.38-1.19.38h-1.55ZM387.32,352.22c.33,0,.61-.1.83-.31.22-.21.36-.5.42-.86l.14-.93c.07-.37.02-.66-.14-.86-.16-.21-.41-.31-.74-.31s-.62.1-.83.3-.36.49-.42.87l-.14.93c-.06.38-.01.67.14.87.15.2.4.3.74.3Z"/>
    <path class="cls-3" d="M392.49,353.31c-.39,0-.71-.08-.96-.23s-.44-.37-.55-.65c-.11-.28-.13-.61-.08-.98l.21-1.34c.07-.38.2-.71.4-.99.2-.28.45-.5.76-.65.31-.15.65-.23,1.04-.23s.71.08.97.23c.26.15.44.37.55.65.11.28.13.61.07.99l-.13.86h-2.99l-.07.47c-.06.39-.01.68.14.89s.41.31.77.31c.31,0,.56-.05.76-.16.2-.11.34-.27.41-.49h.8c-.08.27-.21.51-.41.71-.2.2-.44.35-.73.46-.29.11-.6.16-.95.16ZM394.06,350.44l.04-.33c.07-.39.02-.68-.13-.89-.15-.21-.41-.31-.78-.31s-.65.1-.87.31c-.22.21-.36.5-.43.89l-.04.26h2.27l-.07.07Z"/>
    <path class="cls-3" d="M401.61,353.22v-4.9s.68,0,.68,0l-.06,3.47c0,.13,0,.27,0,.42s0,.28,0,.38c.03-.1.07-.23.12-.38.05-.15.09-.29.13-.42l1.1-3.47h.78v3.47c0,.13,0,.27,0,.42s0,.28,0,.38c.03-.1.07-.23.12-.38.05-.15.09-.29.13-.42l1.06-3.47h.68l-1.59,4.9h-.88v-3.38c0-.17,0-.33,0-.5v-.39c-.02.09-.06.23-.12.39-.05.17-.11.33-.16.5l-1.09,3.38h-.88Z"/>
    <path class="cls-3" d="M406.57,353.22l.12-.73h1.74l.54-3.44h-1.51l.12-.73h2.31l-.66,4.17h1.65l-.12.73h-4.18ZM409.58,347.44c-.2,0-.34-.05-.44-.15-.1-.1-.13-.24-.11-.41.03-.18.11-.32.24-.42.13-.1.29-.16.48-.16s.34.05.44.16c.1.1.13.24.1.42-.02.17-.1.31-.23.41-.13.1-.29.15-.49.15Z"/>
    <path class="cls-3" d="M414.41,353.22c-.42,0-.73-.11-.93-.34-.2-.23-.27-.54-.2-.95l.45-2.88h-1.38l.12-.73h1.38l.21-1.34h.8l-.21,1.34h1.96l-.12.73h-1.96l-.45,2.88c-.06.37.09.56.45.56h1.34l-.12.73h-1.34Z"/>
    <path class="cls-3" d="M417.36,353.22l1.03-6.5h.8l-.26,1.6-.15.93h.17l-.2.19c.07-.39.23-.68.49-.89.26-.21.6-.32,1.01-.32.49,0,.86.15,1.1.45.24.3.32.72.24,1.24l-.53,3.29h-.8l.51-3.2c.05-.35,0-.62-.15-.81-.15-.19-.39-.29-.71-.29s-.61.1-.84.31c-.23.21-.37.5-.44.88l-.49,3.12h-.8Z"/>
    <path class="cls-3" d="M428.05,353.22l1.03-6.5h.8l-.44,2.79h.94l1.89-2.79h.89l-2.11,3.15,1.17,3.35h-.89l-1.03-3.01h-.96l-.48,3.01h-.8Z"/>
    <path class="cls-3" d="M434.95,353.31c-.49,0-.85-.16-1.09-.49s-.31-.77-.22-1.33l.22-1.43c.06-.38.18-.7.35-.98.18-.27.39-.48.66-.63.26-.15.56-.22.89-.22.4,0,.71.11.92.33s.28.51.22.88l-.13-.19h.18l.13-.93h.8l-.77,4.9h-.8l.15-.93h-.16l.19-.19c-.06.37-.23.67-.51.89s-.62.32-1.02.32ZM435.33,352.62c.33,0,.61-.1.83-.31.22-.21.36-.5.42-.86l.21-1.34c.07-.37.02-.66-.14-.86-.16-.21-.41-.31-.74-.31s-.62.1-.83.3-.36.49-.42.87l-.21,1.34c-.06.38-.01.67.14.87s.4.3.74.3Z"/>
    <path class="cls-3" d="M438.5,353.22l.77-4.9h.7l-.09.59h.16l-.16.21c.05-.27.16-.49.33-.65.17-.16.38-.24.63-.24.27,0,.47.1.58.3s.14.49.08.85l-.16-.48h.37l-.21.21c.05-.27.16-.49.33-.65.17-.16.39-.24.64-.24.31,0,.53.12.66.35.13.23.17.54.1.92l-.59,3.72h-.74l.59-3.73c.03-.2.01-.36-.05-.47-.07-.11-.18-.17-.35-.17s-.29.06-.4.16-.18.27-.21.47l-.6,3.74h-.64l.59-3.73c.04-.21.02-.37-.06-.48-.07-.11-.19-.16-.36-.16s-.3.06-.4.16c-.1.11-.17.27-.2.47l-.6,3.74h-.74Z"/>
    <path class="cls-3" d="M443.96,353.22l.12-.73h1.74l.54-3.44h-1.51l.12-.73h2.31l-.66,4.17h1.65l-.12.73h-4.18ZM446.97,347.44c-.2,0-.34-.05-.44-.15-.1-.1-.13-.24-.11-.41.03-.18.11-.32.24-.42.13-.1.29-.16.48-.16s.34.05.44.16c.1.1.13.24.1.42-.02.17-.1.31-.23.41-.13.1-.29.15-.49.15Z"/>
    <path class="cls-3" d="M449.79,354.82l.12-.73h1.56c.25,0,.44-.06.58-.17.14-.11.22-.29.26-.53l.11-.67.15-.89h-.17l.2-.19c-.06.38-.22.68-.49.89-.27.21-.61.32-1.02.32-.49,0-.85-.15-1.1-.45-.25-.3-.33-.72-.24-1.24l.45-2.85h.8l-.44,2.76c-.06.34-.01.61.15.81.16.2.4.29.72.29s.61-.1.84-.31c.23-.21.37-.5.43-.88l.42-2.67h.8l-.81,5.07c-.07.44-.26.79-.57,1.04-.32.26-.71.38-1.19.38h-1.55Z"/>
    <path class="cls-3" d="M456.31,353.31c-.49,0-.85-.16-1.09-.49s-.31-.77-.22-1.33l.22-1.43c.06-.38.18-.7.35-.98.18-.27.39-.48.66-.63.26-.15.56-.22.89-.22.4,0,.71.11.92.33s.28.51.22.88l-.13-.19h.18l.13-.93h.8l-.77,4.9h-.8l.15-.93h-.16l.19-.19c-.06.37-.23.67-.51.89s-.62.32-1.02.32ZM456.7,352.62c.33,0,.61-.1.83-.31.22-.21.36-.5.42-.86l.21-1.34c.07-.37.02-.66-.14-.86-.16-.21-.41-.31-.74-.31s-.62.1-.83.3-.36.49-.42.87l-.21,1.34c-.06.38-.01.67.14.87s.4.3.74.3Z"/>
    <path class="cls-3" d="M459.86,353.22l.77-4.9h.7l-.09.59h.16l-.16.21c.05-.27.16-.49.33-.65.17-.16.38-.24.63-.24.27,0,.47.1.58.3s.14.49.08.85l-.16-.48h.37l-.21.21c.05-.27.16-.49.33-.65.17-.16.39-.24.64-.24.31,0,.53.12.66.35.13.23.17.54.1.92l-.59,3.72h-.74l.59-3.73c.03-.2.01-.36-.05-.47-.07-.11-.18-.17-.35-.17s-.29.06-.4.16-.18.27-.21.47l-.6,3.74h-.64l.59-3.73c.04-.21.02-.37-.06-.48-.07-.11-.19-.16-.36-.16s-.3.06-.4.16c-.1.11-.17.27-.2.47l-.6,3.74h-.74Z"/>
    <path class="cls-3" d="M467,353.31c-.49,0-.85-.16-1.09-.49s-.31-.77-.22-1.33l.22-1.43c.06-.38.18-.7.35-.98.18-.27.39-.48.66-.63.26-.15.56-.22.89-.22.4,0,.71.11.92.33s.28.51.22.88l-.13-.19h.18l.13-.93h.8l-.77,4.9h-.8l.15-.93h-.16l.19-.19c-.06.37-.23.67-.51.89s-.62.32-1.02.32ZM467.38,352.62c.33,0,.61-.1.83-.31.22-.21.36-.5.42-.86l.21-1.34c.07-.37.02-.66-.14-.86-.16-.21-.41-.31-.74-.31s-.62.1-.83.3-.36.49-.42.87l-.21,1.34c-.06.38-.01.67.14.87s.4.3.74.3Z"/>
    <path class="cls-3" d="M472.61,353.31c-.23,0-.39-.07-.51-.2-.11-.13-.15-.31-.12-.53.04-.23.13-.42.29-.55.16-.14.35-.2.57-.2s.39.07.5.2c.11.14.15.32.11.55-.04.22-.13.39-.28.53-.16.13-.34.2-.57.2Z"/>
  </g>
</svg>